<svg width="229" height="51" viewBox="0 0 229 51" fill="none" xmlns="http://www.w3.org/2000/svg">
<circle cx="25.1973" cy="25.1973" r="25.1973" fill="#6DD0FE"/>
<path fill-rule="evenodd" clip-rule="evenodd" d="M10.0396 5.13518C3.9418 9.734 0 17.0393 0 25.2653C0 39.1814 11.2812 50.4626 25.1973 50.4626C39.1134 50.4626 50.3947 39.1814 50.3947 25.2653C50.3947 15.4546 44.7879 6.95356 36.6038 2.7915C37.1695 5.2177 37.4654 7.89781 37.4654 10.8567C37.4654 20.851 31.0254 30.7521 23.9067 35.9286C21.6852 37.544 18.5193 35.5165 19.3384 32.898C24.3947 16.7318 20.8767 8.70366 10.0396 5.13518Z" fill="#391145"/>
<path d="M83.7267 15.064C82.6467 18.712 81.5187 22.132 80.3427 25.324C79.1667 28.516 77.8827 31.612 76.4907 34.612C75.9867 35.692 75.4827 36.604 74.9787 37.348C74.4747 38.116 73.9227 38.74 73.3227 39.22C72.7227 39.724 72.0387 40.084 71.2707 40.3C70.5267 40.54 69.6507 40.66 68.6427 40.66C67.8027 40.66 67.0227 40.576 66.3027 40.408C65.6067 40.264 65.0307 40.096 64.5747 39.904L65.5107 35.62C66.0627 35.812 66.5547 35.944 66.9867 36.016C67.4187 36.088 67.8747 36.124 68.3547 36.124C69.3147 36.124 70.0467 35.86 70.5507 35.332C71.0787 34.828 71.5227 34.12 71.8827 33.208C70.6587 30.808 69.4347 28.12 68.2107 25.144C66.9867 22.144 65.8347 18.784 64.7547 15.064H70.4427C70.6827 16 70.9587 17.02 71.2707 18.124C71.6067 19.204 71.9547 20.308 72.3147 21.436C72.6747 22.54 73.0347 23.62 73.3947 24.676C73.7787 25.732 74.1387 26.692 74.4747 27.556C74.7867 26.692 75.1107 25.732 75.4467 24.676C75.7827 23.62 76.1067 22.54 76.4187 21.436C76.7547 20.308 77.0667 19.204 77.3547 18.124C77.6667 17.02 77.9427 16 78.1827 15.064H83.7267ZM103.822 24.496C103.822 25.984 103.606 27.352 103.174 28.6C102.742 29.824 102.118 30.88 101.302 31.768C100.486 32.632 99.502 33.304 98.35 33.784C97.222 34.264 95.95 34.504 94.534 34.504C93.142 34.504 91.87 34.264 90.718 33.784C89.59 33.304 88.618 32.632 87.802 31.768C86.986 30.88 86.35 29.824 85.894 28.6C85.438 27.352 85.21 25.984 85.21 24.496C85.21 23.008 85.438 21.652 85.894 20.428C86.374 19.204 87.022 18.16 87.838 17.296C88.678 16.432 89.662 15.76 90.79 15.28C91.942 14.8 93.19 14.56 94.534 14.56C95.902 14.56 97.15 14.8 98.278 15.28C99.43 15.76 100.414 16.432 101.23 17.296C102.046 18.16 102.682 19.204 103.138 20.428C103.594 21.652 103.822 23.008 103.822 24.496ZM98.35 24.496C98.35 22.84 98.014 21.544 97.342 20.608C96.694 19.648 95.758 19.168 94.534 19.168C93.31 19.168 92.362 19.648 91.69 20.608C91.018 21.544 90.682 22.84 90.682 24.496C90.682 26.152 91.018 27.472 91.69 28.456C92.362 29.416 93.31 29.896 94.534 29.896C95.758 29.896 96.694 29.416 97.342 28.456C98.014 27.472 98.35 26.152 98.35 24.496ZM165.043 15.064C163.963 18.712 162.835 22.132 161.659 25.324C160.483 28.516 159.199 31.612 157.807 34.612C157.303 35.692 156.799 36.604 156.295 37.348C155.791 38.116 155.239 38.74 154.639 39.22C154.039 39.724 153.355 40.084 152.587 40.3C151.843 40.54 150.967 40.66 149.959 40.66C149.119 40.66 148.339 40.576 147.619 40.408C146.923 40.264 146.347 40.096 145.891 39.904L146.827 35.62C147.379 35.812 147.871 35.944 148.303 36.016C148.735 36.088 149.191 36.124 149.671 36.124C150.631 36.124 151.363 35.86 151.867 35.332C152.395 34.828 152.839 34.12 153.199 33.208C151.975 30.808 150.751 28.12 149.527 25.144C148.303 22.144 147.151 18.784 146.071 15.064H151.759C151.999 16 152.275 17.02 152.587 18.124C152.923 19.204 153.271 20.308 153.631 21.436C153.991 22.54 154.351 23.62 154.711 24.676C155.095 25.732 155.455 26.692 155.791 27.556C156.103 26.692 156.427 25.732 156.763 24.676C157.099 23.62 157.423 22.54 157.735 21.436C158.071 20.308 158.383 19.204 158.671 18.124C158.983 17.02 159.259 16 159.499 15.064H165.043ZM185.138 24.496C185.138 25.984 184.922 27.352 184.49 28.6C184.058 29.824 183.434 30.88 182.618 31.768C181.802 32.632 180.818 33.304 179.666 33.784C178.538 34.264 177.266 34.504 175.85 34.504C174.458 34.504 173.186 34.264 172.034 33.784C170.906 33.304 169.934 32.632 169.118 31.768C168.302 30.88 167.666 29.824 167.21 28.6C166.754 27.352 166.526 25.984 166.526 24.496C166.526 23.008 166.754 21.652 167.21 20.428C167.69 19.204 168.338 18.16 169.154 17.296C169.994 16.432 170.978 15.76 172.106 15.28C173.258 14.8 174.506 14.56 175.85 14.56C177.218 14.56 178.466 14.8 179.594 15.28C180.746 15.76 181.73 16.432 182.546 17.296C183.362 18.16 183.998 19.204 184.454 20.428C184.91 21.652 185.138 23.008 185.138 24.496ZM179.666 24.496C179.666 22.84 179.33 21.544 178.658 20.608C178.01 19.648 177.074 19.168 175.85 19.168C174.626 19.168 173.678 19.648 173.006 20.608C172.334 21.544 171.998 22.84 171.998 24.496C171.998 26.152 172.334 27.472 173.006 28.456C173.678 29.416 174.626 29.896 175.85 29.896C177.074 29.896 178.01 29.416 178.658 28.456C179.33 27.472 179.666 26.152 179.666 24.496Z" fill="#391145"/>
<path d="M124.141 33.352C123.229 33.616 122.053 33.856 120.613 34.072C119.173 34.312 117.661 34.432 116.077 34.432C114.469 34.432 113.125 34.216 112.045 33.784C110.989 33.352 110.149 32.752 109.525 31.984C108.901 31.192 108.457 30.256 108.193 29.176C107.929 28.096 107.797 26.908 107.797 25.612V15.064H113.161V24.964C113.161 26.692 113.389 27.94 113.845 28.708C114.301 29.476 115.153 29.86 116.401 29.86C116.785 29.86 117.193 29.848 117.625 29.824C118.057 29.776 118.441 29.728 118.777 29.68V15.064H124.141V33.352ZM134.54 34H129.176V15.064H134.54V34ZM135.044 9.592C135.044 10.576 134.72 11.356 134.072 11.932C133.448 12.484 132.704 12.76 131.84 12.76C130.976 12.76 130.22 12.484 129.572 11.932C128.948 11.356 128.636 10.576 128.636 9.592C128.636 8.608 128.948 7.84 129.572 7.288C130.22 6.712 130.976 6.424 131.84 6.424C132.704 6.424 133.448 6.712 134.072 7.288C134.72 7.84 135.044 8.608 135.044 9.592ZM205.458 33.352C204.546 33.616 203.37 33.856 201.93 34.072C200.49 34.312 198.978 34.432 197.394 34.432C195.786 34.432 194.442 34.216 193.362 33.784C192.306 33.352 191.466 32.752 190.842 31.984C190.218 31.192 189.774 30.256 189.51 29.176C189.246 28.096 189.114 26.908 189.114 25.612V15.064H194.478V24.964C194.478 26.692 194.706 27.94 195.162 28.708C195.618 29.476 196.47 29.86 197.718 29.86C198.102 29.86 198.51 29.848 198.942 29.824C199.374 29.776 199.758 29.728 200.094 29.68V15.064H205.458V33.352ZM218.017 20.824L221.761 15.064H227.305L220.825 24.172C222.265 25.972 223.573 27.724 224.749 29.428C225.925 31.132 226.861 32.656 227.557 34H221.797C221.605 33.64 221.365 33.196 221.077 32.668C220.789 32.116 220.465 31.552 220.105 30.976C219.745 30.376 219.361 29.788 218.953 29.212C218.569 28.612 218.185 28.072 217.801 27.592C217.441 28.048 217.069 28.552 216.685 29.104C216.325 29.656 215.977 30.22 215.641 30.796C215.305 31.348 214.969 31.9 214.633 32.452C214.321 33.004 214.045 33.52 213.805 34H208.333C208.621 33.4 209.017 32.692 209.521 31.876C210.025 31.06 210.565 30.22 211.141 29.356C211.741 28.468 212.365 27.592 213.013 26.728C213.661 25.84 214.297 25.012 214.921 24.244C213.841 22.732 212.761 21.208 211.681 19.672C210.601 18.112 209.533 16.576 208.477 15.064H214.273L218.017 20.824Z" fill="#6DD0FE"/>
</svg>
