<svg width="30" height="21" viewBox="0 0 30 21" fill="none" xmlns="http://www.w3.org/2000/svg">
<path fill-rule="evenodd" clip-rule="evenodd" d="M2 0C0.89543 0 0 0.82771 0 1.84872V18.4872C0 19.5083 0.89543 20.3359 2 20.3359H28C29.1046 20.3359 30 19.5083 30 18.4872V1.84872C30 0.82771 29.1046 0 28 0H2ZM2 1.84872H28V3.55868C27.8348 3.55853 27.6676 3.6004 27.5178 3.68829L15 11.0314L2.48224 3.68829C2.33242 3.6004 2.1652 3.55853 2 3.55868V1.84872ZM2 5.37603V18.4872H28V5.37603L15.4822 12.7191C15.1879 12.8918 14.8121 12.8918 14.5178 12.7191L2 5.37603Z" fill="#8E7F93"/>
</svg>
