<svg width="203" height="32" viewBox="0 0 203 32" fill="none" xmlns="http://www.w3.org/2000/svg">
<circle cx="16" cy="16" r="14" fill="white"/>
<path d="M16 30C23.732 30 30 23.732 30 16C30 8.26801 23.732 2 16 2C8.26801 2 2 8.26801 2 16C2 21.6801 5.38269 26.5702 10.2435 28.7655C10.25 28.6141 10.2573 28.4752 10.2636 28.3561C10.2722 28.1938 10.2788 28.0682 10.2788 27.9976C10.2788 27.5769 10.5649 25.4904 10.5649 25.4904L12.3149 18.3053C12.0457 17.8678 11.8438 16.9423 11.8438 16.2356C11.8438 12.9711 13.6611 12.2644 14.7716 12.2644C16.1851 12.2644 16.5048 13.7957 16.5048 14.9231C16.5048 15.5194 16.1955 16.4528 15.8772 17.4134C15.5398 18.4314 15.1923 19.4799 15.1923 20.1899C15.1923 21.5697 16.5553 22.2596 17.4976 22.2596C19.988 22.2596 22.2764 19.1298 22.2764 16C22.2764 12.8702 20.8125 9.08412 16.0168 9.08412C11.2212 9.08412 9.06731 12.7356 9.06731 15.5288C9.06731 17.4134 9.77404 18.7933 10.1274 19.0288C10.2284 19.1186 10.4 19.3957 10.2788 19.786C10.1577 20.1764 9.9367 21.0481 9.84135 21.4351C9.83013 21.5248 9.72356 21.6774 9.38702 21.5697C8.96635 21.4351 6.29087 19.7524 6.29087 15.5288C6.29087 11.3053 9.60577 6.39182 16.0168 6.39182C22.4279 6.39182 25.7091 10.6995 25.7091 16C25.7091 21.3005 21.4183 24.6827 18.1538 24.6827C15.5423 24.6827 14.5192 23.516 14.3341 22.9327L13.3413 26.7187C13.1069 27.3468 12.6696 28.4757 12.1304 29.4583C13.3594 29.8111 14.6576 30 16 30Z" fill="#8E7F93"/>
<rect x="59" y="2" width="28" height="28" rx="6" fill="#8E7F93"/>
<rect x="59" y="2" width="28" height="28" rx="6" fill="#8E7F93"/>
<rect x="59" y="2" width="28" height="28" rx="6" fill="#8E7F93"/>
<path d="M80 10.5C80 11.3284 79.3284 12 78.5 12C77.6716 12 77 11.3284 77 10.5C77 9.67157 77.6716 9 78.5 9C79.3284 9 80 9.67157 80 10.5Z" fill="white"/>
<path fill-rule="evenodd" clip-rule="evenodd" d="M73 21C75.7614 21 78 18.7614 78 16C78 13.2386 75.7614 11 73 11C70.2386 11 68 13.2386 68 16C68 18.7614 70.2386 21 73 21ZM73 19C74.6569 19 76 17.6569 76 16C76 14.3431 74.6569 13 73 13C71.3431 13 70 14.3431 70 16C70 17.6569 71.3431 19 73 19Z" fill="white"/>
<path fill-rule="evenodd" clip-rule="evenodd" d="M63 15.6C63 12.2397 63 10.5595 63.654 9.27606C64.2292 8.14708 65.1471 7.2292 66.2761 6.65396C67.5595 6 69.2397 6 72.6 6H73.4C76.7603 6 78.4405 6 79.7239 6.65396C80.8529 7.2292 81.7708 8.14708 82.346 9.27606C83 10.5595 83 12.2397 83 15.6V16.4C83 19.7603 83 21.4405 82.346 22.7239C81.7708 23.8529 80.8529 24.7708 79.7239 25.346C78.4405 26 76.7603 26 73.4 26H72.6C69.2397 26 67.5595 26 66.2761 25.346C65.1471 24.7708 64.2292 23.8529 63.654 22.7239C63 21.4405 63 19.7603 63 16.4V15.6ZM72.6 8H73.4C75.1132 8 76.2777 8.00156 77.1779 8.0751C78.0548 8.14674 78.5032 8.27659 78.816 8.43597C79.5686 8.81947 80.1805 9.43139 80.564 10.184C80.7234 10.4968 80.8533 10.9452 80.9249 11.8221C80.9984 12.7223 81 13.8868 81 15.6V16.4C81 18.1132 80.9984 19.2777 80.9249 20.1779C80.8533 21.0548 80.7234 21.5032 80.564 21.816C80.1805 22.5686 79.5686 23.1805 78.816 23.564C78.5032 23.7234 78.0548 23.8533 77.1779 23.9249C76.2777 23.9984 75.1132 24 73.4 24H72.6C70.8868 24 69.7223 23.9984 68.8221 23.9249C67.9452 23.8533 67.4968 23.7234 67.184 23.564C66.4314 23.1805 65.8195 22.5686 65.436 21.816C65.2766 21.5032 65.1467 21.0548 65.0751 20.1779C65.0016 19.2777 65 18.1132 65 16.4V15.6C65 13.8868 65.0016 12.7223 65.0751 11.8221C65.1467 10.9452 65.2766 10.4968 65.436 10.184C65.8195 9.43139 66.4314 8.81947 67.184 8.43597C67.4968 8.27659 67.9452 8.14674 68.8221 8.0751C69.7223 8.00156 70.8868 8 72.6 8Z" fill="white"/>
<rect x="116" y="2" width="28" height="28" rx="6" fill="#8E7F93"/>
<path d="M136.923 18.3341C136.708 18.0418 136.66 17.7459 136.777 17.4461C137.071 16.6463 141.349 11.5661 139.567 11.5661C138.342 11.5824 136.87 11.5661 135.695 11.5661C135.477 11.6192 135.336 11.7336 135.248 11.9663C134.562 13.5495 133.721 15.4815 132.49 16.7231C132.328 16.8538 132.227 16.8482 132.043 16.7999C131.179 15.8905 132.1 12.7751 131.575 11.5441C131.471 11.3031 131.244 11.1942 131.013 11.133C129.84 10.8535 127.162 11.0198 126.725 11.5824C126.6 11.7432 126.582 11.831 126.673 11.8454C127.089 11.9111 127.384 12.0682 127.557 12.3167C127.884 13.0374 128.126 16.8764 127.162 16.8764C126.198 16.8764 124.644 13.1088 124.217 12.0644C124.103 11.7499 123.814 11.5696 123.509 11.5164L120.657 11.5382C120.156 11.5382 119.876 11.7854 120.054 12.2836C121.539 15.9703 124.789 23.1164 129.774 22.9375C130.273 22.9375 131.132 23.1292 131.522 22.6963C132.058 21.9852 131.405 20.7188 132.324 20.2359C132.556 20.1126 132.796 20.2159 132.995 20.3676C134.017 21.146 134.56 22.5122 135.821 22.927C136.042 23 136.236 23.0183 136.403 22.9818L139.067 22.938C139.562 22.938 140.049 22.7179 139.947 22.1266C139.558 20.8585 138.011 19.555 136.923 18.3341Z" fill="white"/>
<path d="M182.789 28C179.554 28 176.538 27.0591 174 25.4356C176.155 25.5751 179.958 25.2411 182.324 22.9848C178.765 22.8215 177.16 20.0923 176.951 18.926C177.253 19.0426 178.695 19.1826 179.509 18.856C175.416 17.8296 174.788 14.2373 174.927 13.141C175.695 13.6775 176.997 13.8641 177.509 13.8174C173.695 11.0882 175.067 6.98276 175.742 6.09635C178.479 9.88867 182.581 12.0186 187.656 12.137C187.561 11.7174 187.51 11.2804 187.51 10.8316C187.51 7.61092 190.113 5 193.325 5C195.003 5 196.514 5.71275 197.576 6.85284C198.697 6.59011 200.384 5.97507 201.209 5.4432C200.793 6.93611 199.499 8.18149 198.716 8.64308C198.722 8.65878 198.71 8.62731 198.716 8.64308C199.404 8.53904 201.265 8.18137 202 7.68256C201.636 8.52125 200.264 9.91573 199.138 10.6964C199.347 19.9381 192.276 28 182.789 28Z" fill="#8E7F93"/>
</svg>
