<svg width="440" height="326" viewBox="0 0 440 326" fill="none" xmlns="http://www.w3.org/2000/svg">
<path fill-rule="evenodd" clip-rule="evenodd" d="M137.369 147.623C138.964 163.164 140.559 178.705 142.154 194.245C150.84 189.464 159.525 184.682 168.21 179.9V215.304V224.61C168.21 225.433 167.703 228.262 168.21 228.975C168.64 229.58 171.822 229.597 172.575 229.699C177.485 230.362 182.408 230.953 187.337 231.478C200.329 232.862 214.234 234.845 227.275 233.255C238.611 231.872 249.601 227.982 259.958 223.455C263.594 221.866 267.18 220.165 270.699 218.347C271.444 217.962 274.153 217.052 274.558 216.267C274.89 215.626 274.112 213.375 274.009 212.701C273.571 209.861 273.133 207.022 272.696 204.182L266.583 164.53L278.13 175.655C279.034 176.527 280.752 179.002 282.004 179.388C282.922 179.671 285.194 178.794 286.102 178.626C292.639 177.41 299.178 176.194 305.716 174.979C307.239 174.696 310.672 174.706 311.956 173.819C312.648 173.34 312.68 172.367 312.924 171.445C314.519 165.417 316.114 159.389 317.708 153.362C317.996 152.276 319.598 148.853 319.19 147.759C319.044 147.368 318.337 147.1 317.905 146.844C308.037 141.029 298.168 135.213 288.301 129.398C282.895 126.213 277.489 123.027 272.083 119.841C269.819 118.507 267.037 116.102 264.472 115.355C262.879 114.892 260.562 115.239 258.913 115.194C255.564 115.102 252.215 115.009 248.865 114.917C248.341 114.903 246.504 114.542 246.063 114.84C245.696 115.088 245.848 115.434 245.728 116.025C245.433 117.469 245.431 119.026 245.286 120.492C245.169 121.668 245.4 123.825 244.851 124.89C244.5 125.57 244.945 125.299 244.471 125.628C243.905 126.02 242.101 125.894 241.428 125.969C238.146 126.337 234.864 126.704 231.582 127.072C227.68 127.509 223.734 128.33 219.814 127.952C213.87 127.379 207.462 127.408 201.626 126.2C200.109 125.886 199.563 125.061 198.393 123.934C196.11 121.734 193.849 119.509 191.541 117.332C190.409 116.265 190.894 116.446 189.727 116.851C188.266 117.357 186.783 118.581 185.46 119.359C180.391 122.338 175.322 125.317 170.253 128.296L139.305 146.485C138.66 146.864 138.014 147.244 137.369 147.623Z" fill="#FFBCFF"/>
<path fill-rule="evenodd" clip-rule="evenodd" d="M433.376 149.555C426.996 172.924 414.166 198.405 388.316 205.853C382.031 207.664 375.918 209.031 369.39 208.342C368.769 208.276 368.249 208.36 367.658 208.371C366.599 208.391 367.514 208.757 366.326 208.404C365.4 208.128 364.534 207.438 363.569 207.133C361.004 206.324 358.27 206.167 355.663 205.513C349.257 203.905 342.656 201.92 336.45 199.703C333.527 198.659 330.841 197.205 328.092 195.807C325.298 194.385 322.336 193.503 319.511 192.199C317.277 191.169 313.451 189.826 311.882 187.893C310.207 185.832 312.523 181.444 313.186 179.253C315.437 171.796 318.118 164.45 319.81 156.845C325.653 163.379 333.763 167.425 342.158 170.034C346.714 171.45 351.399 172.474 356.137 173.115C360.439 173.696 365.08 174.4 369.392 173.574C372.647 172.951 376.733 171.507 379.058 169.11C379.887 168.254 380.883 166.686 380.418 165.442C379.827 163.864 378.108 164.607 377.178 163.43C376.367 162.404 376.494 160.004 376.236 158.755C375.779 156.545 375.151 154.394 374.385 152.266C372.898 148.134 371.044 143.993 370.6 139.596C370.214 135.782 371.114 132.175 373.087 128.865C374.019 127.3 376.359 123.043 378.643 123.22C381.152 123.414 377.769 133.614 377.658 135.695C377.22 143.944 378.367 152.733 382.754 159.962C384.433 162.73 386.862 165.954 390.448 166.297C394.247 166.66 397.311 163.776 399.119 160.858C403.531 153.74 401.307 143.972 399.072 136.512C396.332 127.358 389.178 121.049 384.655 112.828C391.408 113.483 395.025 117.622 398.49 122.874C402.306 128.655 405.276 135.597 406.741 142.324C407.481 145.723 406.97 149.136 406.975 152.568C406.976 153.709 406.976 157.915 408.903 157.749C410.962 157.572 411.668 152.828 411.971 151.381C412.665 148.061 413.417 144.741 414.019 141.405C415.086 135.502 415.56 129.457 416.838 123.595C417.054 122.604 417.484 119.855 419.021 120.597C420.206 121.169 420.016 125.421 420.06 126.409C420.166 128.845 420.316 131.28 420.336 133.718C420.366 137.331 419.62 141.071 419.986 144.663C420.225 147.009 421.53 149.602 423.149 146.438C424.753 143.299 425.08 139.385 425.975 136.01C426.915 132.466 427.885 128.871 429.88 125.723C430.433 124.85 431.028 123.464 432.258 123.874C433.151 124.173 433.811 126.217 434.087 126.938C435.334 130.197 435.122 133.821 435.043 137.233C434.947 141.414 434.482 145.502 433.376 149.555ZM308.976 155.619C308.635 155.513 307.187 155.381 306.828 155.35C306.407 155.315 306.885 154.567 305.865 154.779C306.063 155.25 306.412 155.564 306.914 155.721C305.382 156.221 304.252 154.986 303.205 154.827C302.203 154.675 302.16 154.827 301.171 155.848C300.099 154.588 300.3 155.374 299.419 155.374C299.099 155.375 299.085 155.842 298.563 155.786C298.107 155.737 298.06 155.07 297.79 154.992C296.328 154.565 294.824 156.713 293.166 154.85C292.764 156.789 288.161 154.36 286.39 154.701C284.533 155.057 285.334 155.699 283.834 154.602C282.404 153.556 282.803 154.251 281.14 155.107C281.179 155.087 280.201 155.723 280.292 155.734C279.141 155.604 279.206 154.456 277.749 154.517C276.206 154.581 275.547 155.748 274.134 154.312C273.827 155.388 273.764 154.924 273.04 155.195C272.642 155.287 272.294 155.186 271.995 154.893C271.905 155.189 271.706 155.37 271.398 155.437C270.61 155.505 269.131 155.611 268.415 155.244C267.341 154.695 268.204 154.484 267.459 153.866C267.125 155.57 266.394 155.208 264.85 155.367C263.673 155.489 263.413 155.14 262.289 154.97C261.182 154.804 259.75 155.218 258.67 155.395C258.224 155.468 257.627 155.769 257.172 155.663C256.763 155.568 256.588 155.262 256.344 155.181C256.047 155.085 256.11 154.835 255.597 154.713C255.244 154.63 254.611 154.95 254.258 155.005C251.739 155.4 249.32 155.404 246.917 154.448C248.1 156.454 244.151 155.371 243.447 154.54C242.567 155.87 241.502 154.931 239.728 155.035C238.02 155.135 235.451 155.64 234.758 153.588C234.623 154.004 233.653 155.216 233.268 155.4C232.148 155.936 232.014 155.143 230.973 154.821C229.556 154.382 229.852 155.216 228.973 155.385C227.49 155.671 226.688 154.664 225.378 154.128C225.322 154.961 225.294 155.473 224.547 155.992C223.886 153.669 221.527 156.182 221.932 153.078C221.035 153.642 219.772 154.075 219.516 155.216C221.017 154.817 219.677 155.764 219.614 155.795C219.415 155.895 218.745 154.988 218.59 154.86C218.547 155.288 218.505 155.716 218.463 156.144C217.865 155.856 217.303 155.339 216.818 155.08C216.381 154.847 217.007 154.362 216.268 154.329C215.879 154.311 215.473 155.124 215.064 155.194C214.439 155.299 214.74 154.435 214.478 154.464C214.08 154.508 213.43 155.07 213.129 155.059C212.141 155.024 212.81 154.58 212.056 154.377C210.709 154.013 210.796 154.863 209.827 155.169C207.611 155.871 207.834 152.642 205.58 154.796C205.041 155.311 204.694 156.107 203.955 156.063C202.425 155.97 202.962 154.22 203.273 153.364C203.595 153.516 197.684 156.446 197.731 156.331C197.768 155.629 198.697 155.087 197.867 154.463C197.187 155.869 196.473 155.894 194.906 156.156C194.144 156.283 193.994 156.453 193.179 156.148C192.66 155.954 192.312 155.155 191.795 155.111C191.865 155.117 190.917 155.813 190.773 155.875C189.918 156.247 189.377 155.825 188.546 155.978C187.837 156.109 187.559 156.69 186.854 156.531C185.913 156.319 186.466 155.235 185.172 155.537C184.729 155.641 184.463 156.463 183.766 156.633C182.68 156.898 181.348 156.403 180.2 156.662C179.288 156.867 178.612 156.954 177.815 156.996C177.171 157.031 177.436 156.548 176.251 157.119L175.748 155.896C175.155 156.411 174.561 156.925 173.968 157.441C173.855 156.979 173.784 156.512 173.754 156.038C172.869 156.894 171.755 157.04 170.565 157.117C169.277 157.2 168.317 157.471 167.064 157.698C166.667 157.77 165.647 157.884 165.321 157.75C165.369 157.77 164.711 157.506 164.909 157.556C164.824 157.389 164.745 157.218 164.672 157.045C164.561 156.562 164.201 156.541 163.594 156.981C163.279 156.934 162.669 156.536 162.356 156.634C161.548 156.887 161.657 157.492 160.852 157.403C160.329 157.346 160.062 156.6 159.518 156.55C158.686 156.473 157.964 157.372 157.213 157.568C159.495 156.971 154.254 157.434 155.884 157.475C154.815 157.448 153.706 157.397 152.719 157.859C152.173 157.499 152.836 156.776 152.285 156.478C151.785 156.208 151.746 156.921 151.688 156.937C152.003 156.851 151.846 157.458 151.53 157.566C150.547 157.902 149.76 157.047 149.709 156.199C148.874 157.412 148.639 156.924 147.411 156.999C146.199 157.073 145.154 157.686 143.942 157.675C141.544 157.653 139.917 156.849 139.117 154.784C141.672 155.084 144.243 153.499 146.741 153.872C147.562 153.995 148.075 154.59 148.794 154.484C149.68 154.354 150.299 153.421 151.436 153.321C153.942 153.1 156.413 153.315 158.936 152.944C161.95 152.501 165.096 152.239 168.139 152.455C170.491 152.622 172.395 151.754 174.78 151.587C177.864 151.37 180.973 151.332 184.062 151.176C187.235 151.015 190.65 150.526 193.815 150.683C194.803 150.732 195.654 150.825 196.634 150.768C197.049 150.744 197.441 150.472 197.876 150.513C198.443 150.566 198.687 151.126 199.275 151.106C200.273 151.073 201.341 150.279 202.529 150.258C204.481 150.222 206.425 150.226 208.383 150.119C210.106 150.024 211.952 149.636 213.668 149.657C214.878 149.672 215.177 150.666 215.882 150.769C217.15 150.954 223.565 147.431 224.12 150.593C227.459 148.387 231.938 150.255 235.655 149.84C240.431 149.308 245.294 149.783 250.102 149.593C254.994 149.4 260.027 149.579 264.9 150.024C266.918 150.208 268.868 150.381 270.892 150.269C271.795 150.219 272.838 149.997 273.74 150.198C273.958 150.247 275.632 151.374 275.424 151.406C276.338 150.614 275.72 150.498 277.328 150.458C278.568 150.426 279.74 150.685 280.972 150.755C283.185 150.881 285.414 150.585 287.621 150.651C289.465 150.705 291.267 150.967 293.12 150.98C295.117 150.994 297.475 151.049 298.921 152.602C298.768 152.114 298.616 151.627 298.463 151.139C300.692 151.307 302.895 152.075 305.149 151.716C304.579 152.243 304 152.673 303.782 153.446C304.998 153.297 305.821 152.479 307.1 152.472C308.175 152.466 308.399 152.986 309.533 152.314C309.673 153.138 309.813 153.961 309.952 154.784C311.524 154.427 310.492 153.297 310.607 152.278C311.885 152.648 312.966 152.223 312.463 153.995C312.075 155.362 310.306 156.036 308.976 155.619ZM306.768 170.843C306.22 172.329 301.48 171.48 300.359 171.323C298.911 171.121 297.254 170.8 295.921 170.641C295.761 170.435 295.569 170.26 295.346 170.117C295.178 170.342 294.966 170.502 294.709 170.596C294.097 170.725 294.095 171.335 293.29 171.2C293.253 172.103 293.903 171.59 294.4 171.918C293.146 172.729 293.72 171.795 293.016 171.81C292.842 171.571 292.599 171.477 292.287 171.529C291.891 171.628 291.525 171.792 291.191 172.02C290.877 172.34 290.609 172.356 290.385 172.07C290.171 171.862 289.91 171.734 289.601 171.685C288.365 171.879 288.02 172.408 286.628 172.321C284.64 172.198 282.489 172.703 280.532 172.437C279.32 172.272 277.293 170.434 276.742 172.226C275.904 170.897 274.568 169.993 273.765 168.636C277.505 168.427 281.244 168.179 284.986 168.048C288.263 167.935 291.848 168.29 294.911 168.141C297.78 168.002 300.817 167.696 303.746 167.443C306.851 167.176 307.878 167.833 306.768 170.843ZM209.206 171.063C210.564 171.425 211.857 170.603 213.174 170.863C213.609 170.949 214.51 171.714 214.709 171.729C215.071 171.757 216.137 171.006 216.595 170.905C219.487 170.27 222.991 170.338 225.883 170.728C227.415 170.934 227.651 170.258 228.988 169.929C230.378 169.587 232.355 169.85 233.819 169.756C237.263 169.534 240.705 169.692 244.126 169.449C247.638 169.199 251.132 169.064 254.646 168.89C257.039 168.771 262.791 167.454 264.774 169.168C266.41 170.582 264.303 173.036 262.667 173.596C261.443 174.014 260.857 173.133 259.948 173.217C258.914 173.313 259.275 174.492 258.352 173.398C257.78 174.486 254.183 174.022 253.153 174.094C250.907 174.25 249.008 174.685 247.479 172.664C247.583 173.247 247.686 173.83 247.79 174.413C245.763 173.368 243.588 173.702 241.828 174.067C240.957 174.247 238.282 175.494 237.338 174.956C236.689 174.586 237.834 173.954 236.738 173.638C236.164 173.472 235.173 174.393 234.471 174.347C232.529 174.218 233.08 172.958 231.173 174.561C230.526 174.022 230.311 173.105 230.397 172.32C229.011 173.46 229.127 175.36 226.65 175.012C225.727 174.883 225.557 173.974 225.076 173.807C224.05 173.449 223.934 174.092 223.046 174.6C222.711 174.792 222.302 175.1 221.907 175.139C221.096 175.217 220.967 174.857 220.856 174.869C220.317 174.926 219.637 175.191 218.997 175.002C218.422 174.832 218.254 173.854 217.242 174.083C216.273 174.302 216.265 174.937 216.441 175.887C215.485 175.792 214.907 175.278 214.192 174.722C213.471 176.346 211.952 175.001 211.112 176.371C210.017 175.11 209.315 175.457 207.957 174.226C208.024 174.74 208.091 175.253 208.157 175.768C207.097 175.571 206.626 174.85 205.721 175.803C204.844 174.226 202.184 176.474 200.817 174.95C200.208 176.879 196.178 176.418 194.476 176.452C192.967 176.481 191.851 176.362 190.377 176.7C189.075 176.999 187.269 177.308 186.045 177.172C185.244 177.082 184.369 176.941 183.372 177.046C181.935 177.196 180.693 177.914 179.204 177.574C176.962 177.063 175.587 174.221 178.085 172.973C179.794 172.119 182.873 172.435 184.754 172.277C187.871 172.016 191.364 171.469 194.485 171.718C196.92 171.912 199.139 171.351 201.623 171.115C203.493 170.937 206.558 170.616 207.778 172.404C208.246 171.882 208.198 170.793 209.206 171.063ZM175.083 195.542C174.748 193.933 188.999 193.048 190.413 192.943C193.383 192.722 196.361 192.564 199.338 192.491C201.784 192.431 204.068 192.882 206.516 192.52C208.801 192.181 211.56 191.488 213.55 193.049C213.842 190.914 222.421 191.954 224.052 191.96C231.157 191.984 237.955 192.001 244.826 191.576C248.754 191.333 252.924 191.007 256.852 191.197C258.623 191.282 260.05 191.738 261.812 191.342C262.961 191.085 264.199 190.548 265.298 191.306C266.584 192.195 267.134 195.209 266.248 196.468C265.603 197.385 265.031 197.283 264 197.124C262.416 196.881 261.238 196.527 259.622 197.149C259.883 197.048 258.539 197.337 258.65 197.329C256.82 197.461 254.309 198.695 252.731 197.273C253.363 197.38 254.282 196.291 253.485 196.201C252.887 196.134 252.507 196.753 252.04 196.96C250.443 197.669 249.626 197.448 248.672 195.96C246.748 197.567 246.541 197.122 245.697 195.144C245.046 195.627 244.907 196.77 244.395 197.145C244.319 197.201 244.634 197.895 244.264 197.866C243.921 197.839 243.809 197.297 243.545 197.255C243.377 197.227 243.289 196.752 243.128 196.723C242.954 196.691 242.774 196.995 242.576 196.986C242.048 196.962 240.536 198.047 241.078 196.524C240.277 197.507 239.933 196.881 239.644 195.986C238.719 196.664 237.795 197.342 236.869 198.02C236.44 196.867 235.699 197.181 234.769 197.584C235.049 196.783 234.873 196.025 234.17 196.582C233.762 196.905 233.488 197.928 233.071 198.363C231.383 196.713 230.769 197.166 228.437 197.381C227.546 197.462 226.44 197.621 225.645 197.102C224.945 196.646 224.55 194.972 223.354 196.324C223.621 196.024 223.203 198.334 223.129 198.7C222.602 198.358 222.154 197.936 221.785 197.436C221.097 198.75 219.29 197.57 217.81 197.839C215.48 198.262 213.076 198.974 211.018 197.301C210.872 197.841 209.186 198.529 209.183 198.55C209.283 197.593 209.909 197.93 208.632 197.748C208.396 197.715 208.13 198.123 207.908 198.167C207.146 198.319 206.256 198.175 205.489 198.154C202.296 198.065 199.373 198.748 196.22 198.996C195.157 199.079 193.896 199.242 192.898 198.856C191.87 198.457 191.898 198.005 190.858 198.262C191.187 198.181 190.208 199.173 190.261 199.136C190.121 199.234 189.538 198.749 189.331 198.786C189.27 198.997 189.21 199.209 189.149 199.42C188.898 199.39 188.648 199.361 188.397 199.331C187.712 199.42 187.093 198.75 186.449 198.728C186.567 198.732 184.71 199.399 184.795 199.439C183.499 198.815 183.871 198.996 182.226 199.376C180.672 199.735 179.124 199.651 177.529 199.875C172.89 200.525 175.654 198.282 175.083 195.542ZM170.986 217.92C170.114 216.727 172.434 216.314 173.176 216.209C174.395 216.035 176.013 216.38 176.825 216.193C178.062 215.91 179.257 215.232 180.649 215.048C182.407 214.816 184.179 214.778 185.944 214.633C186.532 214.584 187.26 214.389 187.832 214.422C188.684 214.471 189.038 214.906 189.725 214.909C190.897 214.915 192.343 214.201 193.543 214.07C195.08 213.902 196.634 213.823 198.179 213.749C201.434 213.593 204.656 213.658 207.909 213.655C209.393 213.653 213.345 212.167 214.085 213.833C215.114 212.57 217.752 212.742 219.223 212.706C221.814 212.641 224.379 212.4 226.968 212.284C229.184 212.184 231.661 212.642 233.838 212.322C235.038 212.145 235.436 211.774 236.796 211.942C237.807 212.065 239.348 211.55 240.216 211.778C240.17 211.766 241.298 212.44 240.946 212.462C241.334 212.438 241.311 212.699 241.738 212.583C242.299 212.43 242.042 211.749 243.205 211.508C245.018 211.13 247.437 211.567 249.322 211.47C251.15 211.376 252.975 211.335 254.805 211.344C255.648 211.347 256.69 211.153 257.509 211.312C257.911 211.389 258.764 211.895 259.105 211.844C260.069 211.699 260.56 211.053 261.864 211.093C263.342 211.138 264.672 211.118 266.142 211.009C267.564 210.905 267.793 210.708 268.498 211.851C269.197 212.984 269.39 214.46 268.103 215.23C268.939 215.177 269.967 216.257 268.982 216.854C268.374 217.224 267.153 216.39 266.425 216.45C265.527 216.524 264.822 216.982 263.846 217.011C262.819 217.041 261.775 217.291 260.763 217.31C259.708 217.329 258.91 216.874 257.909 217.068C257.029 217.239 256.936 217.935 255.875 217.324C255.348 217.019 255.259 215.893 254.541 215.883C253.577 215.868 253.961 217.069 253.408 217.625C253.259 215.908 251.885 218.749 251.339 216.665C250.835 217.357 248.971 218.325 248.068 217.769C247.245 217.263 247.518 216.116 247.175 215.289C246.604 216.774 245.073 218.315 245.211 215.612C244.467 216.495 242.457 216.356 242.961 217.902C242.355 217.891 242.211 217.056 241.701 216.992C241.261 216.938 240.911 217.265 240.844 217.26C241.085 217.279 240.123 217.588 240.107 217.592C240.759 217.464 238.228 217.246 238.659 217.249C238.072 217.245 237.353 217.709 236.666 217.707C236.04 217.706 235.418 217.468 234.8 217.4C233.199 217.224 233.533 217.563 232.527 218.048C232.155 218.228 232.061 218.532 231.532 218.494C231.142 218.466 230.996 217.975 230.952 217.971C230.403 217.918 230.809 217.74 229.957 217.822C229.859 217.984 229.762 218.146 229.664 218.308C229.356 218.688 228.957 218.783 228.467 218.594C227.206 218.854 223.025 219.985 223.434 217.891C222.794 218.193 222.153 218.495 221.512 218.798C221.237 217.109 217.756 219.348 216.979 219.461C215.981 219.605 215.889 219.236 214.946 219.04C214.776 219.004 214.435 219.546 214.036 219.468C213.002 219.267 212.817 219.168 212.64 218.083C211.902 219.414 211.289 218.819 209.951 219.038C209.654 219.086 209.465 219.648 209.04 219.551C208.734 219.482 208.726 218.942 208.514 218.872C208.324 218.809 208.353 218.382 208.073 218.322C207.752 218.252 206.657 219.118 206.343 219.252C205.635 219.553 204.471 220.051 203.78 219.902C202.925 219.718 203.305 219.106 202.097 219.175C200.191 219.283 199.396 220.848 198.21 218.382C197.675 219.37 197.743 219.638 196.884 219.964C196.249 220.204 194.64 219.953 193.804 219.923C190.233 219.796 186.721 220.97 183.18 220.663C181.623 220.527 180.31 220.227 178.739 220.472C177.088 220.731 175.474 221.111 173.799 221.264C172.948 221.342 171.168 221.578 170.75 220.527C170.383 219.603 171.754 218.972 170.986 217.92ZM177.99 255.832C173.358 258.823 169.521 262.906 165.268 266.363C161.003 269.829 157.619 273.682 153.784 277.521C150.239 281.069 146.981 284.426 142.694 287.108C139.982 288.805 137.562 290.894 134.775 292.494C132.688 293.692 129.527 295.268 130.545 291.603C131.588 287.847 133.515 284.05 135.188 280.542C137.567 275.555 139.963 270.614 142.537 265.722C143.504 263.884 144.045 262.055 145.579 260.59C147.248 258.997 148.417 256.916 150.244 255.41C157.932 249.078 169.518 253.97 177.99 255.832ZM192.521 257.98C190.42 259.042 188.068 259.306 185.841 260.009C183.944 260.607 182.179 261.672 180.138 261.751C181.996 260.405 183.592 258.576 185.687 257.555C188.043 256.405 190.181 257.242 192.521 257.98ZM284.752 266.836C277.023 264.32 269.826 260.612 262.298 257.629C260.999 257.113 250.835 253.883 251.042 252.347C258.164 251.088 265.499 248.927 272.638 251.283C279.133 253.425 284.415 258.565 289.443 262.867C290.755 263.99 298.867 269.101 298.141 270.729C297.638 271.857 293.73 271.55 292.807 271.318C291.614 271.019 290.927 270.321 289.992 269.553C288.428 268.271 286.698 267.47 284.752 266.836ZM270.483 224.797C271.657 223.754 272.36 222.173 273.481 221.211C274.922 219.974 277.247 220.577 278.822 221.219C283.548 223.146 287.588 226.385 292.285 228.396C297.491 230.624 301.997 233.602 306.692 236.671C310.983 239.476 315.623 241.798 320.004 244.474C324.468 247.203 329.465 248.976 333.99 251.607C338.595 254.286 343.182 256.975 347.607 259.926C355.499 265.189 363.715 270.593 369.553 278.075C372.554 281.921 375.363 286.284 377.564 290.603C379.566 294.529 381.737 299.978 379.143 304.062C376.652 307.985 372.406 311.074 368.813 314C367.452 315.108 366.157 316.454 364.393 316.935C362.248 317.519 359.744 317.358 357.537 317.53C345.739 318.453 334.747 317.582 323.119 315.546C311.908 313.583 300.65 312.484 289.352 311.119C282.979 310.35 276.607 309.453 270.32 308.171C267.632 307.623 264.898 306.991 262.268 306.245C259.972 305.593 258.041 304.157 255.679 303.589C245.658 301.174 234.191 300.251 224.27 296.19C233.05 292.669 242.38 290.542 251.378 287.617C260.849 284.538 270.099 281.955 280.082 281.08C285.218 280.63 289.815 279.364 294.757 278.039C299.465 276.777 304.381 276.39 309.218 275.824C311.369 275.572 317.507 275.949 318.22 273.236C319.281 269.198 313.25 268.731 310.679 269.093C307.032 269.606 304.024 270.485 301.233 267.597C298.383 264.649 295.613 261.631 292.711 258.72C287.331 253.323 281.785 247.08 274.179 244.658C264.9 241.704 254.14 244.508 244.882 246.188C235.103 247.963 225.34 249.661 215.744 252.241C211.77 253.308 206.646 255.661 202.522 255.284C198.457 254.91 193.854 254.269 189.926 253.138C188.148 252.626 186.688 251.678 185.097 250.794C183.03 249.644 180.764 248.907 178.569 248.013C174.132 246.206 169.806 244.541 165.018 243.831C160.986 243.233 156.705 242.878 152.798 244.242C148.964 245.58 145.568 248.304 142.893 251.214C139.988 254.375 137.587 257.918 135.206 261.451C134.063 263.146 132.668 264.626 131.484 266.283C130.49 267.675 129.91 269.221 128.858 270.574C126.504 273.601 124.906 277.472 123.48 280.993C121.894 284.903 120.134 289.555 120.513 293.809C120.655 295.416 120.805 297.546 121.449 299.037C122.269 300.934 123.439 300.885 125.124 301.6C128.019 302.829 128.831 306.226 132.573 305.564C136.083 304.943 139.127 302.152 141.687 299.928C145.025 297.03 148.219 293.973 151.413 290.929C154.69 287.803 157.919 284.337 160.526 280.661C161.552 279.214 162.352 277.579 163.565 276.261C165.11 274.582 166.844 274.381 168.941 273.712C187.282 267.865 205.711 262.225 224.624 258.365C229.155 257.44 233.723 256.247 238.174 255.016C242.895 253.71 245.34 255.09 249.236 257.575C257.376 262.768 266.997 266.425 276.061 269.814C278.916 270.88 283.459 270.948 285.69 273.052C272.466 274.997 259.863 278.74 247.108 282.467C240.819 284.303 234.458 285.897 228.145 287.654C221.83 289.411 215.755 291.689 209.527 293.67C203.328 295.642 196.777 296.447 190.519 298.266C184.13 300.123 177.768 301.4 171.21 302.529C164.588 303.669 158.013 304.984 151.368 306.005C148.326 306.472 145.284 306.957 142.276 307.6C139.332 308.229 136.488 309.736 133.53 310.085C120.317 311.644 107.364 315.12 94.2033 317.084C84.3768 318.551 67.2809 320.597 60.9087 311.084C54.501 301.518 62.3623 290.359 69.3767 283.519C73.7359 279.268 78.6341 275.527 83.7732 272.198C89.2736 268.636 94.5656 264.79 100.067 261.233C112.517 253.184 126.016 246.619 139.392 240.151C145.812 237.047 152.015 233.717 158.26 230.31C161.36 228.619 163.075 231.347 165.525 233.202C167.452 234.661 170.991 238.257 173.687 236.595C173.791 237.193 173.895 237.792 173.999 238.391C174.788 238.044 175.579 237.697 176.368 237.349C176.899 238.691 176.837 239.525 178.319 240.23C179.229 240.663 181.171 241.184 182.039 240.422C182.216 240.952 182.393 241.481 182.57 242.011C183.328 241.956 183.475 239.862 183.618 239.372C184.918 241.204 186.716 242.734 189 243.252C189.012 243.133 188.629 241.628 188.645 241.618C189.368 241.191 190.28 243.02 190.663 243.411C191.934 244.709 192.692 244.508 194.096 243.46C194.198 243.567 194.673 244.763 194.742 244.742C195.046 244.649 195.623 243.589 195.686 243.492C195.598 244.886 198.388 245.167 199.373 244.868C199.152 244.46 198.931 244.051 198.711 243.643C202.142 243.201 203.49 246.718 206.783 246.54C209.218 246.407 207.265 245.894 208.644 244.887C209.847 244.008 210.062 245.932 210.18 245.87C210.41 245.638 210.588 245.372 210.714 245.07C211.16 246.717 214.707 248.195 214.34 245.487C215.736 246.025 216.727 246.919 218.271 247.108C220.148 247.338 222.153 246.953 224.026 246.803C228.061 246.479 231.865 245.685 235.502 243.901C237.659 242.844 239.954 241.884 241.982 240.608C243.678 239.541 246.897 236.299 249.156 237.695C248.577 236.048 251.3 237.574 251.387 235.453C251.824 235.772 252.262 236.089 252.699 236.408C252.962 235.853 252.888 234.978 253.24 234.495C253.722 233.83 253.958 234.221 254.369 233.848C254.829 233.43 255.231 232.31 255.783 231.991C256.351 231.664 257.02 232.055 257.632 231.768C258.564 231.331 262.571 227.068 261.893 230.721C263.616 230.156 262.288 229.639 262.503 228.532C262.935 226.311 263.987 227.91 265.035 228.103C266.751 228.42 266.717 227.051 267.674 226.056C268.547 225.148 270.191 224.741 269.625 223.163C270.271 223.499 270.408 224.157 270.483 224.797ZM167.032 177.379C165.68 178.832 164.668 178.211 163.165 177.998C163.004 177.478 162.729 177.406 162.341 177.781C161.895 178.029 161.416 178.191 160.903 178.269C159.671 178.562 158.39 178.437 157.185 178.881C157.219 178.492 157.644 177.799 157.372 177.403C156.104 178.25 155.318 178.788 153.76 178.804C152.499 178.817 150.284 177.887 149.237 178.999C149.204 178.566 149.172 178.133 149.14 177.701C148.627 177.947 148.18 178.277 147.801 178.691C147.729 178.05 147.689 177.565 147.25 177.047C146.416 178.701 145.503 178.74 143.884 178.108C144.111 178.196 142.263 177.151 142.334 177.441C141.749 175.066 150.971 175.262 151.94 175.168C154.357 174.932 156.775 174.796 159.196 174.58C161.493 174.377 163.207 174.031 164.796 175.88C164.088 173.21 170.789 173.342 167.032 177.379ZM61.2964 135.968C61.5504 140.005 62.4817 144.296 60.8548 148.182C59.5471 151.305 56.9382 154.832 54.1275 156.87C48.3727 161.043 43.4952 155.937 42.694 150.325C41.8592 144.471 43.514 137.319 48.738 133.71C51.8595 131.554 54.882 131.703 58.4756 132.412C59.3195 132.579 60.6897 132.514 61.1724 133.324C61.2857 133.513 61.1841 135.964 61.2964 135.968ZM137.728 189.754C136.734 190.239 135.694 190.522 134.818 191.18C134.513 191.409 134.41 191.931 134.087 192.123C133.499 192.474 132.658 192.241 132.046 192.531C131.032 193.009 130.305 193.693 129.099 194.134C127.309 194.788 125.74 195.686 124.048 196.537C121.229 197.955 118.204 199.172 115.257 200.327C113.769 200.91 109.656 202.045 109.798 204.146C109.465 204.233 109.125 203.531 108.43 203.587C107.477 203.664 106.217 204.728 105.226 204.99C103.374 205.479 101.94 205.522 101.94 207.801C101.351 207.414 101.201 206.468 100.416 206.343C99.5335 206.202 99.1621 207.121 98.4559 207.407C97.6241 207.744 96.5897 207.421 95.7661 207.779C95.4059 208.147 95.0056 208.468 94.5651 208.741C94.117 208.791 93.6709 208.778 93.2273 208.701C91.4786 209.059 89.8695 209.694 88.1167 210.023C86.4086 210.345 85.2385 210.462 85.9569 212.411C84.1294 212.756 83.6833 210.885 81.6216 211.57C79.0944 212.408 76.7324 213.012 74.0946 213.524C72.7492 213.785 71.3434 214.366 69.9884 214.503C69.0215 214.601 68.1192 214.267 67.1671 214.371C66.0199 214.495 65.0977 215.008 63.9104 215.027C62.784 215.046 61.6017 214.851 60.4956 214.659C60.6521 215.089 60.8477 215.501 61.0825 215.896C60.3178 215.741 59.9647 214.854 59.3164 214.723C58.6361 214.586 58.0264 215.263 57.4599 215.113C57.2186 215.048 57.3792 214.331 56.9478 214.193C56.5541 214.069 56.3884 214.216 55.9982 214.157C55.8682 214.137 54.2368 214.052 53.9766 214.185C53.5224 214.417 53.9822 214.853 53.8918 214.917C52.3574 216.013 52.3386 215.422 51.6548 214.277C50.6503 212.597 49.4391 213.658 47.6136 213.363C45.5788 213.036 43.9758 213.902 41.9736 213.779C39.8138 213.646 37.2755 212.086 35.3656 211.176C31.2422 209.209 27.2208 207.349 23.7578 204.37C16.9879 198.548 11.4804 191.388 8.23315 183.191C4.7441 174.385 4.08295 165.201 4.363 155.858C4.53147 150.239 4.99758 144.624 5.91545 139.071C6.54733 135.252 6.67968 128.464 11.1431 126.724C11.9102 135.668 9.48904 144.781 11.016 153.667C11.4758 156.344 12.5971 159.909 14.7193 161.892C17.8612 164.826 18.5964 160.584 18.8804 158.242C19.4093 153.89 20.3919 149.563 21.0879 145.232C21.783 140.903 22.2743 136.526 23.2406 132.242C23.5932 130.68 26.4353 119.243 28.5215 119.785C28.0993 128.105 26.9785 136.283 26.9343 144.633C26.917 147.983 26.6061 151.521 27.107 154.848C27.3651 156.561 28.9813 161.585 31.7609 161.166C34.3332 160.778 31.5054 157.239 31.265 155.874C30.6289 152.262 31.4398 147.767 32.0327 144.181C33.1556 137.394 35.6598 130.444 39.7528 124.773C43.419 119.695 49.0636 114.86 55.8641 115.756C58.7692 116.139 61.0362 116.835 62.4959 119.395C63.6416 121.404 68.1537 123.687 65.5387 126.202C63.1584 128.492 59.3083 126.659 56.6623 126.113C53.4223 125.445 49.9502 126.248 47.2407 128.08C42.5919 131.222 39.9428 136.84 39.0781 142.109C37.9126 149.212 41.028 167.807 52.5027 163.64C60.1258 160.871 65.8674 150.912 65.2273 143.287C64.9707 140.235 63.7341 134.441 68.1105 133.617C73.7176 132.561 74.5097 138.525 73.9416 142.4C73.1165 148.037 70.0285 153.279 66.4959 157.736C63.417 161.621 59.8362 164.05 56.1313 167.258C55.0344 168.208 52.2365 170.343 52.7065 172.11C53.2216 174.046 57.6185 174.596 59.3789 174.914C68.0887 176.487 77.9106 175.04 86.6057 173.942C104.476 171.684 122.112 166.123 136.766 155.898C137.357 162.225 138.104 168.53 138.379 174.879C138.512 177.961 138.546 181.087 138.911 184.153C139.136 186.038 139.949 188.672 137.728 189.754ZM88.1761 211.798C87.4745 212.152 88.233 210.01 88.0379 210.719C89.0861 211.082 89.1323 211.441 88.1761 211.798ZM162.309 135.238C163.422 134.054 166.465 131.236 167.431 133.91C167.79 132.77 167.837 131.082 169.224 132.621C169.776 130.73 175.868 130.907 177.377 130.824C182.209 130.557 187.06 130.415 191.875 129.952C201.768 129 211.834 129.491 221.764 129.46C223.914 129.453 226.058 129.341 228.193 129.642C230.252 129.932 232.417 130.747 234.517 130.449C236.383 130.184 237.607 129.688 239.528 129.9C241.827 130.154 244.059 130.335 246.378 130.327C256.637 130.291 266.891 130.692 277.152 130.707C279.152 130.71 281.548 130.333 283.424 131.153C284.119 131.457 284.879 132.468 285.41 132.579C286.018 132.706 285.657 131.79 286.471 132.204C287.562 132.757 286.717 134.46 285.997 134.729C286.428 134.568 285.218 134.409 285.339 134.402C284.764 134.432 284.274 134.857 283.657 134.831C282.717 134.791 281.931 134.238 281.174 133.751C281.161 133.95 281.577 135.275 281.102 135.342C280.693 135.4 280.31 134.093 280.269 133.789C277.974 135.743 275.542 134.654 272.693 134.901C270.673 135.077 266.46 136.377 265.05 134.342C264.992 134.775 264.812 135.154 264.511 135.479C264.108 136.071 263.76 136.021 263.466 135.327C263.366 135.331 262.385 135.537 262.365 135.536C261.675 135.483 260.779 135.243 260.076 135.186C258.989 135.096 259.189 135.86 258.323 135.872C257.85 135.878 256.644 135.219 255.819 135.178C254.39 135.106 252.931 135.691 251.522 135.514C250.551 135.392 249.674 134.63 248.722 134.601C247.536 134.562 247.151 135.436 246.211 134.21C246.019 134.159 245.899 134.88 245.823 134.893C245.841 134.889 244.928 135.02 244.821 135.061C244.633 135.13 243.903 135.452 243.681 135.456C243.202 135.464 242.941 135.133 242.432 135.125C241.591 135.111 238.905 135.826 238.98 134.324C235.977 135.398 233.415 134.98 230.333 135.233C228.919 135.35 228.031 135.167 226.686 134.917C225.001 134.603 223.882 134.997 222.202 135.077C220.587 135.154 220.078 134.494 218.715 133.899C218.178 133.664 217.823 133.355 217.163 133.485C216.787 133.56 217.055 134.171 216.944 134.212C216.364 134.428 215.96 134.2 215.166 134.252C213.7 134.348 213.116 135.531 211.609 134.421C212.109 134.362 212.61 134.303 213.112 134.244C211.67 133.655 209.768 133.354 210.117 135.501C208.888 135.334 209.952 134.527 209.348 134.237C208.743 133.949 208.067 134.432 207.306 134.671C205.296 135.3 203.621 134.987 201.525 134.875C199.144 134.746 193.574 136.621 191.869 134.187C191.818 134.7 191.247 136.129 190.488 136.062C190.24 136.039 190.93 134.523 191.008 134.362C190.617 135.166 188.833 135.318 187.953 135.735C188.052 135.303 188.15 134.872 188.249 134.44C187.432 135.279 187.035 134.767 186.074 135.048C185.654 135.17 185.046 136.006 184.687 136.057C184.269 135.588 183.742 135.387 183.109 135.452C182.688 135.351 182.267 135.331 181.845 135.393C180.159 135.511 178.622 136.415 176.944 135.799C175.492 135.265 174.931 133.893 174.065 136.077C173.837 135.688 173.609 135.3 173.381 134.912C173.1 135.334 172.82 135.755 172.538 136.176C171.44 135.482 171.372 135.08 170.108 135.335C169.811 135.449 169.507 135.433 169.196 135.286C169.121 135.501 169.047 135.714 168.972 135.928C168.942 136.465 168.777 136.643 168.476 136.46C168.223 136.372 167.995 136.239 167.791 136.061C166.955 136.122 165.886 136.335 164.989 136.217C164.642 136.173 162.47 135.066 162.309 135.238ZM187.904 120.785C188.003 120.931 188.101 121.077 188.2 121.223C186.842 121.915 186.522 121.517 186.382 120.128C187.045 120.14 187.159 121.266 187.904 120.785ZM188.745 119.97C189.399 120.248 190.149 120.795 190.765 120.062C191.18 121.225 188.1 122.812 188.745 119.97ZM192.968 120.484C194.341 121.379 191.048 120.659 191.054 120.661C191.645 120.133 192.284 120.074 192.968 120.484ZM204.776 115.491C205.247 117.783 206.546 117.718 208.641 116.653C211.698 115.099 212.214 112.554 212.427 109.515C212.632 106.601 213.001 105.473 216.115 106.082C218.288 106.506 220.127 106.149 222.318 106.091C224.657 106.029 225.481 106.373 225.669 108.695C225.857 111.02 226.286 112.785 228.034 114.554C229.812 116.353 232.183 117.427 234.492 118.433C235.68 118.95 236.795 119.506 238.11 119.618C238.619 119.662 241.269 119.338 241.325 120.148C241.366 120.756 237.696 122.472 237.306 122.676C235.604 123.569 233.906 124.371 232.047 124.912C227.769 126.157 223.233 126.231 218.802 126.155C211.658 126.034 201.784 123.118 197.512 117.003C199.934 116.499 202.355 115.995 204.776 115.491ZM204.135 95.6426C203.005 94.7274 202.273 93.3445 201.334 92.2606C200.86 91.7141 200.513 91.54 200.063 91.2665C199.588 90.9782 199.321 91.3861 198.925 90.7086C197.902 88.9586 201.058 86.4958 197.71 85.8222C196.578 85.5938 193.851 86.46 193.521 84.8937C193.053 82.6795 197.433 82.5349 198.464 81.4108C200.513 79.1764 199.122 75.3885 200.37 72.811C201.552 70.3693 204.602 69.9354 207.009 69.2016C210.363 68.18 213.758 67.5873 217.163 66.7696C219.544 66.1981 223.501 63.9019 225.709 65.9309C222.301 66.6608 224.282 67.8069 226.554 68.4535C229.127 69.1869 231.853 69.4727 234.519 69.6771C237.264 69.8869 240.06 69.9271 242.772 69.3991C245.28 68.9109 248.08 66.8079 250.709 67.3466C249.251 69.7943 244.905 71.1311 242.264 71.7723C240.918 72.0987 240.057 71.9968 240.237 73.6154C240.412 75.1841 241.826 76.7572 242.145 78.3916C242.567 80.5544 242.199 82.5422 241.4 84.5761C240.615 86.5776 240.433 86.8389 241.118 88.7512C242.187 91.7288 239.89 95.02 237.767 97.1824C229.179 105.926 212.746 102.614 204.135 95.6426ZM225.955 43.3871C225.99 43.4763 225.96 43.4424 225.955 43.3871V43.3871ZM228.63 65.4525C228.274 65.7088 226.223 66.2471 226.309 65.474C226.423 64.4377 228.271 64.8122 228.63 65.4525ZM233.303 44.5234C232.822 44.1773 231.474 44.3194 232.46 43.0076C232.781 43.5846 233.042 44.0537 233.303 44.5234ZM200.961 36.2309C201.575 34.6936 202.254 33.2632 202.53 31.6264C202.701 30.618 202.362 29.4665 203.823 29.3082C201.961 28.5248 201.942 25.4326 201.832 23.8296C201.681 21.6221 200.958 18.6664 201.964 16.6118C202.996 14.5012 204.388 14.5361 204.808 17.0497C204.973 18.0339 204.344 18.3522 204.225 19.0376C203.991 20.3935 204.457 20.0963 205.363 19.0633C205.738 20.1132 205.881 21.6909 207.404 21.6242C207.303 21.3402 206.719 20.7139 206.914 20.3612C207.214 19.8195 208.676 20.6471 208.862 20.7724C210.198 21.674 210.488 22.4969 209.535 23.634C210.854 23.7712 209.747 24.8855 210.598 25.1757C211.898 25.6189 211.026 23.5198 210.885 23.1506C211.676 23.4482 211.941 23.7884 212.442 24.3909C212.736 24.8066 213.004 25.2384 213.245 25.685C213.514 26.5007 214.068 26.7047 214.907 26.2983C216.59 26.8076 218.913 26.7277 220.421 27.6184C221.11 28.0248 221.358 28.9145 221.934 29.2523C222.581 29.6327 223.449 29.4601 224.144 29.6989C223.89 30.2567 224.096 30.5587 224.761 30.6058C225.278 30.6514 225.779 30.7636 226.264 30.9425C226.625 30.6793 227.02 30.471 227.445 30.32C227.731 30.8058 228.135 30.9259 228.658 30.6813C230.209 30.9617 230.955 31.5279 231.941 32.3745C232.826 33.1343 232.105 33.196 233.075 33.1284C233.465 33.1014 234.148 32.4637 235.039 32.5882C235.552 32.6843 236.046 32.8372 236.523 33.0456C237.038 33.4706 237.585 33.524 238.163 33.2063C239.102 33.649 239.195 34.4343 240.341 34.5417C241.607 34.6608 241.2 33.1367 242.07 35.2858C243.241 33.0073 243.67 36.6373 244.88 36.9305C246.133 37.2344 246.268 36.254 247.341 37.3251C247.662 37.6462 247.645 38.1766 248.005 38.5168C248.597 39.0737 249.396 38.9624 249.911 39.7222C249.624 39.2982 249.978 41.2252 249.972 41.1615C250.052 42.0115 249.269 42.964 250.873 42.8914C250.856 42.9807 250.085 44.0645 249.934 43.942C249.898 43.8184 249.866 43.6929 249.842 43.566C249.67 43.6376 249.594 44.6699 249.625 44.8523C249.761 44.8729 249.817 44.7753 249.792 44.5596C249.528 45.3557 249.926 45.8616 249.419 46.6175C249.095 47.1004 248.208 47.4637 247.737 47.7617C246.599 48.4813 245.486 49.2034 244.376 49.9696C241.788 51.7559 238.891 53.9104 235.632 54.283C237.268 52.7324 246.685 46.8646 241.962 45.1802C241.086 44.868 239.491 44.5724 238.575 44.5067C237.435 44.4253 236.257 45.0548 235.001 44.6616C233.484 44.1885 234.055 42.813 233.129 42.3194C231.162 41.2728 231.626 43.7346 231.007 44.3792C230.357 43.7209 230.496 43.4003 229.469 43.341C228.426 43.2802 228.178 44.2101 226.962 43.6307C225.286 42.8326 226.173 41.2424 223.795 41.2051C223.835 40.8561 224.18 39.8806 223.726 39.6085C223.114 40.3737 223.588 41.2296 223.02 41.9664C222.736 42.336 222.119 42.6307 221.669 42.7503C220.614 43.0297 220.465 43.5645 220.636 42.0331C219.855 43.391 217.459 42.8326 216.034 42.6959C213.717 42.4738 211.255 42.0507 209.034 41.3341C206.98 40.6708 205.883 39.5315 204.189 38.4947C203.548 38.1026 203.243 38.2526 202.325 38.0089C201.418 37.7687 200.535 37.303 200.961 36.2309ZM205.849 12.1867C206.2 11.9834 206.451 15.0171 206.027 15.5839C205.25 14.3995 203.875 12.6621 205.849 12.1867ZM206.967 10.9766C208.092 9.99444 207.31 12.5312 207.104 12.9568C206.687 12.6991 206.271 12.4413 205.854 12.1836C206.385 11.8689 206.518 11.3683 206.967 10.9766ZM249.4 6.88832C259.791 8.9923 270.088 12.925 278.422 19.397C286.013 25.2919 291.371 33.6559 294.375 42.5527C297.493 51.7873 296.445 62.0327 289.027 69.1006C285.119 72.8233 279.959 75.0694 275.041 77.2611C272.684 78.3112 270.257 79.1857 267.892 80.2117C266.193 80.9485 264.118 82.127 262.179 81.9231C263.169 80.9186 264.603 80.898 265.801 80.2843C267.247 79.5416 268.429 78.1171 269.675 77.0994C270.913 76.0891 273.659 72.9076 275.561 73.6777C275.297 71.9826 277.298 71.1958 278.2 70.0781C279.154 68.8957 279.222 67.5128 280.98 67.126C279.092 65.7005 279.671 63.0127 280.081 61.0724C280.606 58.591 280.849 56.313 281.057 53.7879C281.43 49.2358 281.731 43.4366 279.124 39.435C278.278 38.1354 277.201 36.9413 276.446 35.5912C275.536 33.9647 275.737 32.5333 275.737 30.7499C274.074 31.8284 273.724 29.6298 273.021 28.5582C272.494 27.7542 271.801 27.3052 271.631 26.2934C271.507 25.5576 272.336 25.4331 271.881 24.6615C271.325 25.0669 271.103 25.6953 270.821 26.2787C270.307 26.0806 270.913 25.3904 270.619 25.1664C270.61 25.16 269.619 24.7448 269.668 24.8046C269.031 24.0247 268.825 22.7305 268.513 21.8023C267.345 22.3732 267.563 22.306 266.26 21.352C266.031 21.1842 264.884 20.413 264.776 20.1609C264.272 18.9822 265.155 19.6804 264.908 18.9488C264.198 16.8474 260.216 17.2448 259.901 14.096C257.959 15.2856 257.218 13.6001 256.07 12.4013C254.894 11.1733 252.92 10.7009 253.026 8.75303C252.415 8.9548 251.804 9.15603 251.193 9.35677C251.51 7.55937 248.743 7.67383 247.741 6.76204C248.297 6.7687 248.85 6.81081 249.4 6.88832ZM250.983 118.215C251.946 117.384 251.654 118.49 252.274 118.363C252.803 118.255 252.908 117.869 253.416 117.75C255.51 117.262 258.64 117.875 260.842 117.77C263.392 117.648 267.763 118.159 268.978 121.038C269.71 122.771 268.593 122.182 267.362 122.053C266.408 121.953 265.56 122.14 264.615 122.13C264.148 122.2 263.683 122.193 263.219 122.109C262.993 121.965 262.86 121.763 262.819 121.502C261.505 121.311 260.109 122.061 258.654 122.098C256.712 122.148 254.986 121.789 253.51 120.523C252.923 121.367 252.524 121.786 251.469 121.88C251.441 121.882 250.411 121.482 250.251 121.442C250.04 121.389 249.506 121.816 249.099 121.694C249.821 120.585 249.926 119.126 250.983 118.215ZM383.622 128.233C383.964 127.083 384.251 125.917 384.563 124.759C389.357 130.025 393.552 137.073 395.44 143.826C396.666 148.214 398.574 156.165 392.729 158.428C387.967 160.272 385.311 153.664 384.106 150.409C381.447 143.223 381.447 135.544 383.622 128.233ZM169.148 45.7278C169.209 45.7156 166.044 47.4916 167.087 46.0538C167.506 45.4754 169.094 45.069 169.799 45.069L169.148 45.7278ZM166.103 46.4803C165.737 46.7774 165.367 47.071 164.994 47.3607C164.636 46.8146 164.277 46.268 163.919 45.7219C164.625 45.4347 167.625 45.219 166.103 46.4803ZM163.872 101.696C163.21 101.263 162.686 101.493 162.486 102.22C162.486 101.497 162.877 99.8177 163.476 99.6222C163.864 99.4952 162.188 97.5829 162.659 97.0824C163.857 97.7441 163.14 98.378 163.49 99.2324C163.649 99.6177 164.124 99.9825 164.229 100.279C164.405 100.781 165.12 102.51 163.872 101.696ZM160.628 97.3927C159.95 97.5603 161.138 98.6403 161.137 99.1177C161.136 99.479 160.686 99.756 160.501 100.25C160.099 101.32 160.791 102.043 159.652 102.86C159.652 100.515 158.021 94.3004 161.156 93.1577C159.627 91.9959 160.883 90.6547 162.081 92.0454C163.233 93.3822 162.499 96.9309 160.628 97.3927ZM158.996 88.138C158.379 86.0301 156.525 85.2928 154.405 85.4178C154.486 84.3383 155.333 82.7824 155.946 84.7276C156.198 84.1525 156.372 83.4025 156.946 83.0216C157.913 85.9457 162.732 87.5615 159.732 90.7302C159.486 89.8665 159.248 89.0007 158.996 88.138ZM153.395 85.5746C142.234 86.3556 126.565 88.5899 117.634 80.3358C111.81 74.9537 112.121 66.5726 116.828 60.593C119.513 57.1806 123.179 54.7781 126.861 52.4893C128.282 51.6054 129.486 51.0226 131.045 50.5147C131.298 50.4883 131.536 50.5427 131.758 50.678C131.845 50.3142 132.057 50.0456 132.395 49.8696C132.998 49.5588 133.856 49.4475 134.203 48.8019C133.833 50.0147 133.642 51.2633 133.506 52.5177C133.206 52.18 132.905 51.8422 132.605 51.5045C132.354 53.7898 129.886 52.4065 128.413 52.6918C129.383 53.9879 130.077 54.4585 130.161 56.1713C129.438 54.8835 127.927 54.0369 126.521 53.6222C127.285 55.8002 127.824 57.0929 127.056 59.4812C126.128 58.9699 126.065 57.7419 124.939 57.4478C124.642 58.8718 124.59 60.4523 124.209 61.8342C121.326 60.5655 121.607 63.9823 122.765 65.673C123.381 66.5726 123.683 67.6138 124.232 68.4771C125.58 70.5953 124.556 67.428 126.054 67.578C125.717 69.8119 125.6 70.0345 127.294 71.6703C128.948 73.2654 129.806 75.4787 131.574 76.9773C132.086 76.3459 131.281 75.6851 131.21 75.0807C132.856 75.3469 133.627 76.9391 135.209 75.5287C135.899 76.8263 136.646 78.2553 138.298 78.5215C137.206 76.518 140.396 77.8769 141.214 78.1612C141.834 78.3769 142.946 78.5485 143.185 78.6313C144.533 79.1009 143.609 78.2582 144.427 79.798C145.628 79.448 146.081 78.4867 147.518 79.299C148.686 79.9598 148.688 81.0912 148.956 82.2505C149.234 81.4922 149.515 80.7343 149.823 79.9862C150.136 80.1137 151.452 81.5103 151.308 81.5167C154.386 81.3711 154.278 83.2153 153.395 85.5746ZM137.724 47.77C138.343 47.3514 139.097 47.9088 139.791 47.7588C140.752 47.5519 141.298 46.7578 142.372 46.6725C142.073 47.5936 141.512 47.5073 141.038 48.2303C140.876 48.4769 140.961 49.0681 140.817 49.2103C139.614 50.399 139.198 49.4289 137.97 48.5289C138.077 49.6142 138.293 49.9569 137.234 50.2481C136.274 50.5123 134.691 49.5402 134.207 48.7946C134.615 48.0073 136.985 48.271 137.724 47.77ZM145.382 46.0734C146.424 46.1695 145.169 49.1363 143.676 46.2587C144.238 46.1406 144.807 46.0788 145.382 46.0734ZM150.741 45.5004C152.385 45.1768 157.867 43.6694 158.477 46.1376C158.586 46.0764 158.994 44.6827 159.184 44.8528C159.943 45.5342 160.027 46.4372 159.97 47.3833C159.052 45.5391 159.378 47.1592 158.756 47.0328C158.594 46.9994 158.346 47.2921 157.935 47.1715C157.396 47.0127 157.01 45.9062 156.669 45.5317C156.103 46.3117 155.4 47.3166 154.266 47.2489C153.463 47.2009 152.169 45.2062 153.209 47.3901C152.598 47.1955 151.891 46.7548 151.211 46.843C150.449 46.9426 150.054 47.6676 149.34 47.7847C147.757 48.0436 147.518 46.5744 146.491 45.7763C147.908 45.6969 149.342 45.7754 150.741 45.5004ZM160.684 45.4763C160.8 44.9704 162.239 44.766 162.605 44.9268C163.499 45.3185 163.168 45.8357 163.004 46.696C162.341 46.393 161.677 46.0906 161.014 45.7876C162.004 47.3259 160.21 47.549 160.684 45.4763ZM439.074 135.575C438.957 131.889 438.845 128.139 437.877 124.55C437.199 122.039 435.534 117.535 432.384 117.1C427.635 116.442 425.005 125.499 423.673 128.608C423.407 124.948 423.64 121.052 422.207 117.578C421.06 114.793 418.161 112.156 415.665 115.283C413.444 118.066 413.017 122.173 412.432 125.521C411.674 129.86 411.219 134.232 410.666 138.596C408.496 134.551 408.117 129.92 406.403 125.716C404.785 121.749 402.239 117.96 399.786 114.431C397.783 111.549 395.346 108.839 392.209 107.077C389.478 105.544 384.702 103.885 382.098 106.432C379.926 108.557 380.267 111.4 380.38 114.082C380.43 115.277 380.624 116.095 379.536 116.697C379.001 116.993 378.165 116.84 377.577 116.998C376.63 117.253 375.904 117.685 375.103 118.26C369.486 122.288 366.896 129.547 366.095 136.019C365.081 144.219 368.394 151.249 371.245 158.752C371.699 159.948 373.142 162.484 372.943 163.819C372.725 165.282 370.822 165.32 369.538 165.35C365.66 165.442 361.607 165.164 357.749 164.815C348.563 163.986 339.385 159.719 331.16 155.91C329.66 155.215 327.537 154.817 326.312 153.722C325.16 152.693 324.857 151.044 323.863 149.863C321.423 146.967 319.869 144.496 316.277 142.746C312.62 140.965 308.887 139.318 305.318 137.367C300.905 134.953 296.827 131.895 292.598 129.192C284.739 124.169 276.932 118.664 268.599 114.393C264.727 112.408 260.4 112.087 256.38 110.462C252.465 108.88 247.66 108.878 243.574 109.877C241.584 110.364 240.23 111.518 238.4 112.272C236.255 113.154 234.505 112.18 232.618 111.126C229.734 109.516 226.876 106.892 230.983 105.156C232.375 104.566 234.121 104.343 235.338 103.416C236.635 102.429 237.676 100.607 238.731 99.3707C241.076 96.6211 242.477 93.4563 245.909 91.7464C249.704 89.8557 254.203 89.3409 258.249 88.1051C262.634 86.7668 266.927 85.1751 271.23 83.6123C278.983 80.7971 287.042 77.7572 292.613 71.559C297.418 66.2123 299.512 59.3101 299.318 52.3001C298.922 37.9697 290.965 23.4256 279.55 14.4657C265.552 3.4788 247.745 -0.184897 230.063 0.00711919C221.765 0.0975142 211.862 1.14534 204.938 6.0099C198.958 10.2116 197.963 17.5606 198.852 24.1943C199.213 26.8865 200.447 30.4396 198.479 32.8117C197.378 34.1392 195.401 34.4677 193.918 35.2951C192.053 36.3349 190.409 37.3315 188.298 37.881C179.329 40.2183 169.881 39.4046 160.711 39.2752C145.434 39.0595 129.776 43.0503 118.38 53.4364C109.177 61.8229 106.417 77.6376 117.641 85.8134C126.709 92.4185 140.933 91.692 151.626 90.54C154.942 90.1821 157.222 89.6625 157.23 93.5769C157.238 97.8525 156.504 102.321 157.634 106.518C159.415 113.129 165.999 113.287 171.819 111.863C174.89 111.112 177.86 109.983 180.776 108.8C185.054 107.065 188.975 104.514 193.2 102.782C196.064 101.608 198.208 105.404 200.748 102.773C201.218 102.286 201.305 101.562 202.013 101.313C203.122 100.923 204.983 102.29 205.957 102.722C207.414 103.369 208.883 103.845 209.465 105.404C210.01 106.862 209.771 109.181 209.249 110.619C208.115 113.746 205.063 113.128 202.276 112.919C197.416 112.554 192.588 111.78 187.729 111.455C183.37 111.164 179.288 112.42 175.528 114.495C167.631 118.851 161.17 125.78 154.322 131.478C150.798 134.41 147.391 137.578 143.559 140.132C141.893 141.243 140.088 142.263 138.64 143.643C137.203 145.012 137.045 146.256 136.553 148.078C135.678 151.321 131.331 152.907 128.614 154.618C124.771 157.038 120.697 158.745 116.39 160.229C107.267 163.374 98.0728 165.569 88.5353 167.191C83.8657 167.987 79.2352 168.509 74.5203 168.938C70.4558 169.307 66.1342 170.515 62.0747 169.55C63.2438 167.72 65.3157 166.622 66.9293 165.208C69.0093 163.384 70.7784 161.224 72.3529 158.985C75.4171 154.626 77.5667 149.949 78.06 144.662C78.5051 139.904 77.995 134.212 75.0192 130.192C73.9914 128.803 71.9576 128.426 71.038 127.175C70.123 125.932 70.472 123.791 69.9711 122.341C68.6964 118.654 64.9128 114.085 61.5829 111.943C57.9706 109.619 52.6861 108.766 48.5134 109.976C40.7826 112.22 36.0338 120.191 32.4961 126.634C30.5639 122.711 33.7998 116.89 30.0248 113.677C26.8408 110.967 24.3137 116.217 23.2488 118.463C18.2499 129.007 17.1144 140.19 15.0201 151.472C14.1666 150.66 14.604 148.577 14.6843 147.608C14.8336 145.805 14.8194 144.037 14.8235 142.227C14.8336 137.654 15.7146 133.06 15.3107 128.492C15.0775 125.85 14.2047 120.282 10.2278 121.159C6.85507 121.903 4.74248 126.479 3.68275 129.277C2.15423 133.312 1.80133 137.307 1.89649 141.57C2.00171 146.28 1.07164 150.913 0.846314 155.617C0.40836 164.753 0.840982 173.809 3.55787 182.627C8.00676 197.065 18.2362 209.062 31.8884 216.306C39.4104 220.298 47.7548 222.824 56.3341 223.367C60.9834 223.661 65.4716 223.127 70.0813 222.663C74.6301 222.205 79.2027 221.994 83.7438 221.457C93.8563 220.26 103.71 217.171 112.902 213.014C117.741 210.826 122.291 208.14 127.05 205.807C128.96 204.872 130.25 203.7 131.88 202.399C133.495 201.109 133.942 201.008 135.78 201.008C135.241 199.617 136.814 199.188 137.514 198.308C137.475 198.735 137.435 199.162 137.396 199.588C137.93 198.471 138.426 198.482 138.886 199.62C139.34 198.346 139.677 197.035 140.226 195.792C142.323 196.817 142.147 199.252 144.952 197.474C147.262 196.011 149.386 194.284 151.741 192.851C157.106 189.583 161.731 185.332 167.111 182.103C167.111 185.248 167.342 188.421 166.906 191.551C166.491 194.527 165.34 197.308 164.424 200.157C162.735 205.413 162.618 211.031 160.746 216.234C159.972 218.389 157.956 220.191 157.377 222.288C156.788 224.428 158.149 226.143 155.867 227.548C154.257 228.539 152.246 228.957 150.464 229.556C147.745 230.471 145.164 231.761 142.518 232.855C130.106 237.986 118 243.212 106.5 250.112C95.5868 256.659 84.5069 263.422 74.4817 271.198C65.7811 277.946 56.9859 286.672 54.8678 297.681C52.8127 308.36 58.2886 319.822 69.2837 323.338C75.0004 325.167 81.4636 324.94 87.4171 325.02C93.8233 325.105 100.612 323.615 106.911 322.537C113.562 321.399 120.1 319.618 126.771 318.601C133.172 317.626 139.042 315.446 145.338 314.102C152.043 312.671 158.921 311.895 165.663 310.608C168.699 310.028 171.673 309.173 174.717 308.637C178.049 308.05 181.418 307.829 184.718 307.052C191.119 305.542 197.247 303.109 203.675 301.705C206.565 301.074 209.412 300.228 212.303 299.638C214.965 299.095 217.039 297.651 219.706 298.837C221.862 299.795 223.581 301.437 225.621 302.581C228.266 304.065 231.056 305.394 233.814 306.671C239.356 309.237 245.104 311.011 250.899 312.937C256.985 314.961 262.963 317.268 269.269 318.605C275.734 319.975 282.329 320.356 288.838 321.44C302.169 323.659 315.388 324.655 328.92 324.736C335.76 324.777 342.599 323.994 349.423 324.087C355.464 324.169 360.716 325.483 366.24 322.384C375.067 317.433 385.305 309.974 385.088 299.142C384.891 289.33 378.791 279.955 373.07 272.217C366.121 262.819 356.214 256.201 346.505 249.719C336.157 242.81 324.533 238.036 313.658 232.006C308.095 228.922 302.965 225.604 296.926 223.412C294.043 222.366 291.23 221.153 288.381 220.027C286.088 219.121 282.778 218.62 280.815 217.117C279.591 216.178 279.473 214.758 279.15 213.363C278.434 210.276 277.309 207.349 276.218 204.372C274.113 198.624 272.713 192.77 271.808 186.741C270.946 180.994 269.031 175.018 270.022 169.177C276.545 175.265 283.248 181.117 289.923 187.044C292.424 189.265 294.879 191.533 297.393 193.74C299.28 195.398 301.641 197.86 304.272 198.351C307.633 198.98 306.405 195.393 308.712 194.837C310.122 194.498 314.375 197.955 315.49 198.638C322.556 202.967 330.381 205.709 338.154 208.656C346.304 211.745 354.685 214.489 363.455 215.267C371.556 215.987 379.839 215.063 387.657 212.934C403.224 208.693 414.68 198.632 423.088 185.589C432.667 170.727 439.638 153.317 439.074 135.575Z" fill="#391145"/>
<path fill-rule="evenodd" clip-rule="evenodd" d="M201.142 103.176C201.139 103.18 201.115 103.23 201.115 103.23C201.145 103.21 201.154 103.192 201.142 103.176Z" fill="#391145"/>
<path fill-rule="evenodd" clip-rule="evenodd" d="M201.892 103.368C201.834 102.894 201.708 102.431 201.515 101.977C201.001 102.765 200.54 103.103 201.216 103.938C201.441 103.748 201.667 103.558 201.892 103.368Z" fill="#391145"/>
<path fill-rule="evenodd" clip-rule="evenodd" d="M237.791 216.039C238.367 215.447 237.36 215.224 236.977 215.216C237.015 215.851 236.689 217.373 237.589 217.667C237.373 217.092 237.441 216.55 237.791 216.039Z" fill="#391145"/>
<path fill-rule="evenodd" clip-rule="evenodd" d="M222.585 92.1939C221.594 94.0401 223.783 94.6126 225.05 93.7209C226.003 93.0503 226.567 91.341 226.723 90.2444C227.23 86.6962 224.657 83.3187 223.373 80.17C223.042 79.3563 222.588 76.565 221.52 76.4885C220.293 76.4003 220.202 78.971 220.187 79.6342C220.139 81.6343 220.688 83.6716 221.331 85.5594C222.024 87.5948 223.742 90.038 222.585 92.1939Z" fill="#391145"/>
<path fill-rule="evenodd" clip-rule="evenodd" d="M227.297 84.7903C231.105 88.062 234.151 82.6128 233.885 79.3897C233.82 78.5911 233.26 75.6464 231.69 76.718C230.902 77.2563 231.574 79.0058 231.198 79.774C229.376 83.4976 227.623 77.7215 226.396 77.268C224.904 76.7156 224.754 78.6073 224.756 79.6186C224.76 81.626 225.75 83.4609 227.297 84.7903Z" fill="#391145"/>
<path fill-rule="evenodd" clip-rule="evenodd" d="M213.474 85.2987C214.37 83.9359 215.473 82.1079 215.595 80.475C215.784 77.9372 214.252 78.1489 212.99 79.9196C212.099 81.1706 211.431 83.2922 209.463 82.7648C207.035 82.1147 207.777 78.9637 206.417 77.4666C202.984 81.9157 209.481 91.3626 213.474 85.2987Z" fill="#391145"/>
<path fill-rule="evenodd" clip-rule="evenodd" d="M218.619 98.9143C220.039 99.2104 223.741 99.1015 222.458 97.0034C220.841 94.3612 215.461 98.2554 218.619 98.9143Z" fill="#391145"/>
<path fill-rule="evenodd" clip-rule="evenodd" d="M268.363 20.1117C268.623 19.3649 268.266 19.2293 267.647 18.6411C267.061 19.1638 267.812 19.7136 268.363 20.1117Z" fill="#391145"/>
<path fill-rule="evenodd" clip-rule="evenodd" d="M294.85 155.385C295.786 155.529 296.088 155.051 295.753 153.951C294.275 153.859 293.975 154.337 294.85 155.385Z" fill="#391145"/>
<path fill-rule="evenodd" clip-rule="evenodd" d="M243.695 39.9898C244.728 40.4457 244.333 41.3811 244.315 42.1713C244.847 41.6134 245.922 40.5928 245.484 39.7913C244.81 38.5555 243.048 39.7045 243.695 39.9898Z" fill="#391145"/>
<path fill-rule="evenodd" clip-rule="evenodd" d="M208.498 24.4331C208.34 24.1365 208.183 23.8399 208.025 23.5433C207.384 24.0404 206.393 25.3542 207.413 25.9944C207.831 25.5047 208.193 24.9846 208.498 24.4331Z" fill="#391145"/>
<path fill-rule="evenodd" clip-rule="evenodd" d="M220.896 33.1533C222.181 34.1259 221.564 31.14 221.526 30.8964C221.335 31.2464 220.247 32.6616 220.896 33.1533Z" fill="#391145"/>
<path fill-rule="evenodd" clip-rule="evenodd" d="M220.183 31.6371C220.085 31.3905 219.986 31.1434 219.888 30.8964C219.367 31.3621 218.729 32.3126 219.589 32.8572C219.825 32.4758 220.023 32.0689 220.183 31.6371Z" fill="#391145"/>
<path fill-rule="evenodd" clip-rule="evenodd" d="M228.348 41.8903C228.453 41.9834 228.558 42.0771 228.663 42.1712C229.087 41.3457 228.605 40.7261 227.805 40.7006C227.862 41.1638 228.043 41.5604 228.348 41.8903Z" fill="#391145"/>
<path fill-rule="evenodd" clip-rule="evenodd" d="M193.899 134.74C194.409 134.405 194.872 134.023 195.288 133.594C193.779 132.703 194.683 134.633 192.866 133.448C192.475 133.97 193.114 135.139 193.899 134.74Z" fill="#391145"/>
<path fill-rule="evenodd" clip-rule="evenodd" d="M257.324 215.706C257.897 214.856 258.001 214.881 257.218 214.235C256.564 215.286 256.632 215.016 257.324 215.706Z" fill="#391145"/>
<path fill-rule="evenodd" clip-rule="evenodd" d="M137.369 80.4455C137.681 80.7598 137.994 81.0745 138.306 81.3882C138.452 80.9769 139.247 79.8141 138.707 79.4274C138.261 79.7666 137.815 80.1058 137.369 80.4455Z" fill="#391145"/>
<path fill-rule="evenodd" clip-rule="evenodd" d="M148.482 83.5559C147.983 83.4755 146.79 83.1246 146.514 83.5721C147.244 84.1491 148.891 83.6221 148.482 83.5559Z" fill="#391145"/>
</svg>
